<svg width="60" height="60" viewBox="0 0 60 60" fill="none" xmlns="http://www.w3.org/2000/svg">
<path d="M32.721 58.9998C34.2852 59.0019 35.8313 58.6652 37.253 58.0128L47.074 53.5228C48.6316 52.8104 50.0013 51.7441 51.074 50.4088L59.343 40.0928C59.8273 39.4906 60.061 38.7248 59.9954 37.9548C59.9299 37.1847 59.5701 36.4695 58.991 35.9578L58.757 35.7498C58.2099 35.2656 57.5041 34.999 56.7735 35.0005C56.0429 35.002 55.3382 35.2714 54.793 35.7578L45.463 44.0808C44.6923 44.7694 43.8078 45.3189 42.849 45.7048L35.72 48.5708C35.5407 48.6429 35.3441 48.6605 35.1548 48.6214C34.9655 48.5822 34.792 48.4881 34.656 48.3508L33.643 47.3308L40 44.6428C40.0419 44.6248 40.0827 44.6041 40.122 44.5808C41.0772 44.0104 41.8739 43.2092 42.439 42.2508C42.7346 41.7582 42.8826 41.1911 42.8653 40.6168C42.8481 40.0426 42.6663 39.4854 42.3416 39.0115C42.0169 38.5375 41.5629 38.1668 41.0337 37.9433C40.5044 37.7198 39.9221 37.653 39.356 37.7508L28.642 39.6508C27.2567 39.8965 25.9322 40.4086 24.742 41.1588L20.842 43.6118C19.4223 44.5071 17.7784 44.9828 16.1 44.9838H10V43.9998C10 43.7346 9.89464 43.4802 9.70711 43.2927C9.51957 43.1052 9.26522 42.9998 9 42.9998H1C0.734784 42.9998 0.48043 43.1052 0.292893 43.2927C0.105357 43.4802 0 43.7346 0 43.9998V58.9998C0 59.265 0.105357 59.5194 0.292893 59.7069C0.48043 59.8945 0.734784 59.9998 1 59.9998H9C9.26522 59.9998 9.51957 59.8945 9.70711 59.7069C9.89464 59.5194 10 59.265 10 58.9998V57.8998L17.158 57.1798C18.2829 57.0654 19.4193 57.1672 20.506 57.4798L24.306 58.5718C25.2847 58.8528 26.2978 58.9955 27.316 58.9958L32.721 58.9998ZM8 57.9998H2V44.9998H8V57.9998ZM21.059 55.5618C19.7281 55.1801 18.3367 55.0549 16.959 55.1928L10.001 55.8928V46.9838H16.101C18.1532 46.983 20.1634 46.4024 21.9 45.3088L25.8 42.8558C26.7724 42.2425 27.8549 41.824 28.987 41.6238L39.702 39.7238C39.8877 39.6902 40.0792 39.7112 40.2532 39.7843C40.4271 39.8575 40.5761 39.9796 40.682 40.1358C40.7946 40.2957 40.8579 40.4852 40.8639 40.6807C40.87 40.8762 40.8185 41.0692 40.716 41.2358C40.3321 41.8887 39.7945 42.4379 39.15 42.8358L31.5 46.0648C31.3494 46.1286 31.2167 46.2284 31.1137 46.3553C31.0106 46.4823 30.9402 46.6326 30.9087 46.7931C30.8772 46.9536 30.8856 47.1194 30.9331 47.2759C30.9805 47.4324 31.0657 47.5749 31.181 47.6908L33.238 49.7608C33.6508 50.1775 34.1775 50.463 34.7519 50.5814C35.3264 50.6999 35.923 50.6461 36.467 50.4268L43.591 47.5598C44.7647 47.0878 45.8475 46.4155 46.791 45.5728L56.121 37.2498C56.3008 37.0897 56.5332 37.0012 56.774 37.0012C57.0148 37.0012 57.2472 37.0897 57.427 37.2498L57.661 37.4568C57.8551 37.6286 57.9755 37.8686 57.9973 38.1269C58.0191 38.3852 57.9406 38.6419 57.778 38.8438L49.51 49.1578C48.6333 50.2475 47.5147 51.1178 46.243 51.6998L36.421 56.1898C35.2604 56.7227 33.9981 56.9977 32.721 56.9958H27.312C26.4806 56.9953 25.6533 56.8789 24.854 56.6498L21.059 55.5618Z" fill="white"/>
<path d="M4 54H6V56H4V54Z" fill="white"/>
<path d="M13 8V34C13 34.2652 13.1054 34.5196 13.2929 34.7071C13.4804 34.8946 13.7348 35 14 35H46C46.2652 35 46.5196 34.8946 46.7071 34.7071C46.8946 34.5196 47 34.2652 47 34V8C47 7.73478 46.8946 7.48043 46.7071 7.29289C46.5196 7.10536 46.2652 7 46 7H14C13.7348 7 13.4804 7.10536 13.2929 7.29289C13.1054 7.48043 13 7.73478 13 8ZM15 9H45V33H15V9Z" fill="white"/>
<path d="M38.1513 18.1231L33.1513 17.3591L30.9063 12.5751C30.8255 12.4033 30.6975 12.258 30.5373 12.1563C30.377 12.0545 30.1911 12.0005 30.0013 12.0005C29.8115 12.0005 29.6255 12.0545 29.4653 12.1563C29.305 12.258 29.177 12.4033 29.0963 12.5751L26.8503 17.3591L21.8503 18.1231C21.6685 18.1508 21.4979 18.2281 21.3572 18.3465C21.2165 18.4648 21.1111 18.6197 21.0527 18.7941C20.9943 18.9684 20.9852 19.1555 21.0262 19.3348C21.0672 19.514 21.1569 19.6785 21.2853 19.8101L24.9333 23.5481L24.0693 28.8391C24.0391 29.0243 24.0616 29.2143 24.1343 29.3874C24.207 29.5604 24.327 29.7095 24.4804 29.8176C24.6339 29.9257 24.8147 29.9884 25.0021 29.9986C25.1895 30.0087 25.376 29.9659 25.5403 29.8751L30.0003 27.4101L34.4613 29.8751C34.6255 29.9659 34.812 30.0087 34.9995 29.9986C35.1869 29.9884 35.3677 29.9257 35.5211 29.8176C35.6746 29.7095 35.7945 29.5604 35.8673 29.3874C35.94 29.2143 35.9625 29.0243 35.9323 28.8391L35.0683 23.5481L38.7163 19.8101C38.8447 19.6785 38.9344 19.514 38.9754 19.3348C39.0164 19.1555 39.0072 18.9684 38.9488 18.7941C38.8904 18.6197 38.7851 18.4648 38.6444 18.3465C38.5037 18.2281 38.3331 18.1508 38.1513 18.1231ZM33.2843 22.5131C33.1751 22.6251 33.0937 22.7611 33.0466 22.9103C32.9995 23.0595 32.9881 23.2177 33.0133 23.3721L33.6263 27.1281L30.4833 25.3921C30.3354 25.3105 30.1692 25.2677 30.0003 25.2677C29.8314 25.2677 29.6652 25.3105 29.5173 25.3921L26.3743 27.1281L26.9873 23.3721C27.0125 23.2177 27.001 23.0595 26.954 22.9103C26.9069 22.7611 26.8255 22.6251 26.7163 22.5131L24.0753 19.8061L27.6803 19.2561C27.8426 19.2312 27.9963 19.1667 28.1278 19.0684C28.2593 18.97 28.3646 18.8408 28.4343 18.6921L30.0003 15.3541L31.5663 18.6921C31.636 18.8408 31.7412 18.97 31.8728 19.0684C32.0043 19.1667 32.158 19.2312 32.3203 19.2561L35.9203 19.8061L33.2843 22.5131Z" fill="white"/>
<path d="M29 0H31V4H29V0Z" fill="white"/>
<path d="M51 20H55V22H51V20Z" fill="white"/>
<path d="M5 20H9V22H5V20Z" fill="white"/>
<path d="M6.87695 3.29395L8.29117 1.87973L11.1196 4.70816L9.70538 6.12237L6.87695 3.29395Z" fill="white"/>
<path d="M48.873 4.71191L51.7015 1.88349L53.1157 3.2977L50.2873 6.12613L48.873 4.71191Z" fill="white"/>
</svg>
