<svg width="60" height="60" viewBox="0 0 60 60" fill="none" xmlns="http://www.w3.org/2000/svg">
<path d="M1.70712 30.2929C1.56727 30.153 1.38909 30.0578 1.1951 30.0192C1.00111 29.9806 0.800042 30.0004 0.617312 30.0761C0.434581 30.1518 0.2784 30.28 0.168519 30.4444C0.0586379 30.6089 -7.20643e-06 30.8022 6.642e-10 31V59C6.642e-10 59.2653 0.105357 59.5196 0.292893 59.7071C0.48043 59.8947 0.734784 60 1 60H29C29.1978 60 29.3911 59.9414 29.5556 59.8315C29.72 59.7216 29.8482 59.5655 29.9239 59.3827C29.9996 59.2 30.0194 58.9989 29.9808 58.8049C29.9422 58.611 29.847 58.4328 29.7071 58.2929L1.70712 30.2929ZM2 58V33.4142L26.5859 58H2Z" fill="white"/>
<path d="M7 54H15C15.1978 54 15.3911 53.9414 15.5556 53.8315C15.72 53.7216 15.8482 53.5655 15.9239 53.3827C15.9996 53.2 16.0194 52.9989 15.9808 52.8049C15.9422 52.611 15.847 52.4328 15.7071 52.2929L7.70712 44.2929C7.56727 44.153 7.38909 44.0578 7.1951 44.0192C7.00111 43.9806 6.80004 44.0004 6.61731 44.0761C6.43458 44.1518 6.2784 44.28 6.16852 44.4444C6.05864 44.6089 5.99999 44.8022 6 45V53C6 53.2653 6.10536 53.5196 6.29289 53.7071C6.48043 53.8947 6.73478 54 7 54ZM8 47.4143L12.5859 52H8V47.4143Z" fill="white"/>
<path d="M11 4H13V6H11V4Z" fill="white"/>
<path d="M15 4H17V6H15V4Z" fill="white"/>
<path d="M19 4H21V6H19V4Z" fill="white"/>
<path d="M20.5945 18.0875C20.4167 18.1643 20.2655 18.2919 20.1598 18.4542C20.054 18.6165 19.9985 18.8063 20 19V30C20 30.1934 20.0561 30.3827 20.1615 30.5449C20.2669 30.7072 20.4171 30.8353 20.5939 30.9139L29.5939 34.9139C29.7218 34.9709 29.8602 35.0002 30.0002 35.0001C30.1402 35 30.2786 34.9703 30.4064 34.9131V34.9139L39.4064 30.9139C39.5831 30.8353 39.7333 30.7071 39.8386 30.5449C39.944 30.3827 40.0001 30.1934 40 30V19C40.0016 18.8063 39.946 18.6165 39.8403 18.4542C39.7345 18.2919 39.5833 18.1643 39.4055 18.0875V18.0861L30.4055 14.0861C30.2776 14.0293 30.1392 14 29.9993 14C29.8593 14 29.7209 14.0293 29.593 14.0861L20.593 18.0861L20.5945 18.0875ZM29 32.4612L22 29.35V20.5387L29 23.65V32.4612ZM38 29.35L31 32.4612V23.65L38 20.5389V29.35ZM30 16.0942L36.5375 19L30 21.9056L23.4625 19L30 16.0942Z" fill="white"/>
<path d="M29 38H31V43H29V38Z" fill="white"/>
<path d="M29 7H31V12H29V7Z" fill="white"/>
<path d="M12.5645 16.9082L13.4265 15.1042L17.6123 17.1043L16.7503 18.9083L12.5645 16.9082Z" fill="white"/>
<path d="M42.3652 17.0898L46.5511 15.0897L47.4131 16.8937L43.2272 18.8938L42.3652 17.0898Z" fill="white"/>
<path d="M12.5645 33.0869L16.7503 31.0868L17.6123 32.8908L13.4265 34.8909L12.5645 33.0869Z" fill="white"/>
<path d="M59 46H53V30.4142L58.8787 24.5355C59.2342 24.18 59.5162 23.758 59.7086 23.2935C59.901 22.829 60 22.3311 60 21.8284C60 21.3256 59.901 20.8278 59.7086 20.3633C59.5162 19.8988 59.2342 19.4768 58.8787 19.1213C58.5232 18.7658 58.1011 18.4838 57.6367 18.2914C57.1722 18.099 56.6743 18 56.1716 18C55.6688 18 55.171 18.0991 54.7065 18.2915C54.242 18.4839 53.82 18.7659 53.4645 19.1214L53 19.5859V11C53 10.8687 52.9741 10.7386 52.9239 10.6173C52.8736 10.496 52.8 10.3857 52.7071 10.2929L42.7071 0.292875C42.6143 0.200018 42.504 0.12636 42.3827 0.0761085C42.2614 0.0258568 42.1313 -4.78443e-06 42 6.63907e-10H11C9.9395 0.00119105 8.92278 0.423001 8.17289 1.17289C7.423 1.92278 7.00119 2.9395 7 4V33H9V4C9.00063 3.46976 9.21154 2.96142 9.58648 2.58648C9.96142 2.21154 10.4698 2.00063 11 2H41V8C41.0012 9.0605 41.423 10.0772 42.1729 10.8271C42.9228 11.577 43.9395 11.9988 45 12H51V21.5858L35.2929 37.2929C35.1533 37.4325 35.0582 37.6103 35.0194 37.8039L34.0194 42.8039C33.9871 42.9653 33.9951 43.1322 34.0428 43.2898C34.0905 43.4474 34.1764 43.5907 34.2928 43.7072C34.4093 43.8236 34.5526 43.9095 34.7102 43.9572C34.8678 44.0049 35.0347 44.0129 35.1961 43.9806L40.1961 42.9806C40.3897 42.9419 40.5675 42.8467 40.7071 42.7071L51 32.4142V46H31C30.7348 46 30.4804 46.1054 30.2929 46.2929C30.1054 46.4804 30 46.7348 30 47V50H25V52H30V55C30 55.2652 30.1054 55.5196 30.2929 55.7071C30.4804 55.8946 30.7348 56 31 56H59C59.2652 56 59.5196 55.8946 59.7071 55.7071C59.8946 55.5196 60 55.2652 60 55V47C60 46.7348 59.8946 46.4804 59.7071 46.2929C59.5196 46.1054 59.2652 46 59 46ZM43 8V3.41425L49.5858 10H45C44.4698 9.99937 43.9614 9.78846 43.5865 9.41352C43.2115 9.03858 43.0006 8.53024 43 8ZM37.4142 38L53 22.4142L55.5858 25L40 40.5858L37.4142 38ZM56.1716 20C56.5332 20 56.8867 20.1073 57.1874 20.3082C57.4881 20.5091 57.7224 20.7947 57.8608 21.1288C57.9992 21.4629 58.0354 21.8305 57.9649 22.1852C57.8943 22.5399 57.7202 22.8657 57.4645 23.1214L57 23.5858L54.4142 21L54.8787 20.5355C55.0481 20.3652 55.2496 20.2301 55.4715 20.1382C55.6935 20.0463 55.9314 19.9993 56.1716 20ZM36.6141 40.0284L37.9716 41.3859L36.275 41.725L36.6141 40.0284ZM58 54H32V48H34V50H36V48H38V50H40V48H42V50H44V48H46V50H48V48H50V50H52V48H54V50H56V48H58V54Z" fill="white"/>
</svg>
