<svg xmlns="http://www.w3.org/2000/svg" width="97" height="83" viewBox="0 0 97 83" fill="none"><path d="M74.2255 0.00217438C80.2409 0.0087738 86.0081 2.40132 90.2617 6.65487C94.5152 10.9084 96.9078 16.6756 96.9144 22.691C96.9144 22.7284 96.9144 22.7672 96.9144 22.8046C96.9144 22.8795 96.9241 22.9917 96.9324 23.14C97.398 31.3797 96.051 53.6264 73.5423 82.1327C73.3396 82.3887 73.053 82.5649 72.7331 82.6302C72.4131 82.6955 72.0804 82.6457 71.7935 82.4896C71.5067 82.3335 71.2842 82.0812 71.1653 81.777C71.0464 81.4729 71.0387 81.1365 71.1436 80.8273C71.2073 80.6388 77.3587 62.2125 73.1557 45.3521C67.2359 45.0744 61.6597 42.4913 57.6196 38.1555C53.5795 33.8196 51.3963 28.0751 51.5368 22.1504C51.6773 16.2257 54.1303 10.5912 58.3713 6.45165C62.6123 2.31215 68.3047 -0.00367737 74.2311 -0.000595093L74.2255 0.00217438ZM94.1429 22.612C94.1275 18.6761 92.9464 14.8329 90.7485 11.5678C88.5507 8.3026 85.4347 5.76183 81.7939 4.26622C78.1532 2.77061 74.1509 2.38725 70.2925 3.1645C66.434 3.94176 62.8923 5.84479 60.1146 8.63335C57.3369 11.4219 55.4476 14.9709 54.6854 18.8324C53.9231 22.6939 54.3221 26.6946 55.8318 30.3295C57.3416 33.9644 59.8944 37.0705 63.1681 39.2556C66.4418 41.4408 70.2895 42.607 74.2255 42.607C74.529 42.6071 74.824 42.7068 75.0654 42.8908C75.3067 43.0748 75.481 43.3329 75.5614 43.6255C78.7486 55.2242 77.1855 67.3911 75.6016 74.7743C93.4555 49.7644 94.5766 30.6743 94.1595 23.2952C94.1407 23.068 94.1351 22.8399 94.1429 22.612Z" fill="white" fill-opacity="0.08"></path><path d="M22.6951 0.00217438C28.7105 0.0087738 34.4777 2.40132 38.7313 6.65487C42.9848 10.9084 45.3774 16.6756 45.384 22.691C45.384 22.7284 45.384 22.7672 45.384 22.8046C45.384 22.8795 45.3937 22.9917 45.402 23.14C45.8676 31.3797 44.5206 53.6264 22.0119 82.1327C21.8092 82.3887 21.5226 82.5649 21.2027 82.6302C20.8827 82.6955 20.55 82.6457 20.2631 82.4896C19.9763 82.3335 19.7538 82.0812 19.6349 81.777C19.516 81.4729 19.5083 81.1365 19.6132 80.8273C19.677 80.6388 25.8283 62.2125 21.6253 45.3521C15.7055 45.0744 10.1293 42.4913 6.08921 38.1555C2.04914 33.8196 -0.13409 28.0751 0.00638962 22.1504C0.146866 16.2257 2.59991 10.5912 6.84093 6.45165C11.082 2.31215 16.7743 -0.00367737 22.7007 -0.000595093L22.6951 0.00217438ZM42.6125 22.612C42.5971 18.6761 41.416 14.8329 39.2181 11.5678C37.0203 8.3026 33.9043 5.76183 30.2635 4.26622C26.6228 2.77061 22.6205 2.38725 18.7621 3.1645C14.9036 3.94176 11.362 5.84479 8.58422 8.63335C5.80648 11.4219 3.91724 14.9709 3.15499 18.8324C2.39274 22.6939 2.79167 26.6946 4.30142 30.3295C5.81117 33.9644 8.36404 37.0705 11.6377 39.2556C14.9114 41.4408 18.7591 42.607 22.6951 42.607C22.9986 42.6071 23.2936 42.7068 23.535 42.8908C23.7763 43.0748 23.9506 43.3329 24.031 43.6255C27.2182 55.2242 25.6551 67.3911 24.0712 74.7743C41.9251 49.7644 43.0476 30.6743 42.6305 23.2952C42.6112 23.068 42.6052 22.8399 42.6125 22.612Z" fill="white" fill-opacity="0.08"></path></svg>