<svg width="60" height="60" viewBox="0 0 60 60" fill="none" xmlns="http://www.w3.org/2000/svg">
<path d="M10.6062 40.9764C10.6062 40.5069 10.9868 40.1262 11.4564 40.1262H32.0111C32.4806 40.1262 32.8613 40.5069 32.8613 40.9764C32.8613 41.446 32.4806 41.8266 32.0111 41.8266H11.4564C10.9868 41.8266 10.6062 41.446 10.6062 40.9764ZM11.4564 35.5235H26.4721C26.9417 35.5235 27.3223 35.1429 27.3223 34.6733C27.3223 34.2037 26.9417 33.8231 26.4721 33.8231H11.4564C10.9868 33.8231 10.6062 34.2037 10.6062 34.6733C10.6062 35.1429 10.9868 35.5235 11.4564 35.5235ZM46.2565 47.9421V58.0303C46.2565 59.1164 45.373 59.9999 44.2869 59.9999H30.7362C29.6501 59.9999 28.7666 59.1164 28.7666 58.0303V51.87C26.5106 52.3941 24.1504 52.6601 21.7337 52.6601C20.7319 52.6601 19.7251 52.6132 18.7359 52.5207L8.23494 59.8471C8.08883 59.949 7.91866 60 7.7485 60C7.58223 60 7.41607 59.9514 7.27202 59.8539C6.98065 59.6566 6.84073 59.3003 6.92028 58.9575L9.02842 49.876C3.36073 47.0956 0 42.6296 0 37.8249C0 34.5297 1.53522 31.4151 4.43964 28.8177C7.21834 26.3328 10.9996 24.5397 15.3746 23.6321C15.8343 23.537 16.2844 23.8322 16.3798 24.2919C16.4751 24.7517 16.1797 25.2017 15.72 25.2971C11.6961 26.1317 8.09247 27.8322 5.5732 30.0851C3.0396 32.3509 1.7004 35.0272 1.7004 37.8249C1.7004 42.1199 4.93907 46.1579 10.3638 48.6263C10.7323 48.7939 10.9314 49.1981 10.8398 49.5924L9.07713 57.186L18.0205 50.9462C18.188 50.8294 18.3917 50.777 18.5949 50.7978C19.6272 50.9051 20.6831 50.9595 21.7337 50.9595C24.159 50.9595 26.5212 50.677 28.7666 50.1209V47.942C28.7666 46.8559 29.6501 45.9724 30.7362 45.9724H37.4192C40.2253 43.6546 41.767 40.7709 41.767 37.8247C41.767 34.6768 40.0228 31.6251 36.8555 29.2318C36.481 28.9487 36.4068 28.4156 36.6898 28.0409C36.9729 27.6663 37.506 27.5921 37.8806 27.8752C41.4833 30.5976 43.4674 34.131 43.4674 37.8247C43.4674 40.739 42.2207 43.5709 39.9171 45.9724H44.2868C45.3729 45.9724 46.2565 46.856 46.2565 47.9421ZM44.5561 47.9421C44.5561 47.7962 44.4328 47.673 44.2869 47.673H30.7362C30.5903 47.673 30.467 47.7962 30.467 47.9421V58.0303C30.467 58.1762 30.5903 58.2995 30.7362 58.2995H44.2869C44.4328 58.2995 44.5561 58.1762 44.5561 58.0303V47.9421ZM40.7875 52.9861C40.7875 53.2899 40.6255 53.5706 40.3624 53.7224L35.5109 56.5233C35.3793 56.5992 35.2325 56.6372 35.0858 56.6372C34.9391 56.6372 34.7922 56.5993 34.6607 56.5233C34.3976 56.3715 34.2356 56.0908 34.2356 55.787V50.1851C34.2356 49.8813 34.3976 49.6006 34.6607 49.4488C34.9238 49.2968 35.2478 49.2968 35.5109 49.4488L40.3624 52.2498C40.6255 52.4018 40.7875 52.6823 40.7875 52.9861ZM38.2369 52.9861L35.936 51.6577V54.3145L38.2369 52.9861ZM54.4512 8.88616C54.5955 8.88616 54.7416 8.84948 54.8756 8.77211L58.1592 6.87641C58.5658 6.64164 58.7051 6.12168 58.4704 5.71504C58.2357 5.3084 57.7159 5.16909 57.309 5.40387L54.0254 7.29957C53.6187 7.53434 53.4794 8.0543 53.7142 8.46094C53.8716 8.73361 54.1574 8.88616 54.4512 8.88616ZM48.9782 5.05031C49.1122 5.12767 49.2583 5.16435 49.4026 5.16435C49.6964 5.16435 49.9822 5.01193 50.1396 4.73913L52.1394 1.27542C52.3742 0.868785 52.2349 0.348828 51.8282 0.114051C51.4216 -0.120725 50.9016 0.0185862 50.6668 0.425224L48.667 3.88893C48.4323 4.29557 48.5716 4.81553 48.9782 5.05031ZM54.3 14.2677C54.3 14.7372 54.6806 15.1179 55.1502 15.1179H59.1498C59.6194 15.1179 60 14.7372 60 14.2677C60 13.7981 59.6194 13.4175 59.1498 13.4175H55.1502C54.6806 13.4175 54.3 13.7981 54.3 14.2677ZM18.28 23.5982C18.732 21.9108 19.809 20.5036 21.3126 19.6356L25.7597 17.0681C25.9549 16.9553 26.1871 16.9247 26.4049 16.9831C26.4908 17.0062 26.5715 17.0427 26.645 17.09C31.2152 13.6696 34.8188 9.70988 36.8832 5.83419L36.805 5.69876C35.8416 4.03019 36.4154 1.8889 38.084 0.925384C39.7528 -0.0378914 41.894 0.535871 42.8574 2.20433L46.3267 8.21329C48.1694 7.25997 50.4624 7.91791 51.5104 9.7332C52.5583 11.5484 51.9816 13.8627 50.2348 14.9823L53.7041 20.9913C54.1694 21.7972 54.2922 22.7385 54.0502 23.6421C53.808 24.5456 53.2309 25.2995 52.4251 25.7648C51.8893 26.0741 51.2937 26.2322 50.6891 26.2322C50.3842 26.2322 50.0772 26.192 49.7744 26.1108C48.8708 25.8688 48.117 25.2916 47.6518 24.4859L47.5736 24.3504C43.2234 24.2015 38.0445 25.3215 32.8431 27.5307L38.9818 35.7936C39.5944 36.6183 39.4869 37.757 38.7317 38.4422L37.3812 39.6677C37.0154 39.9996 36.5384 40.1819 36.0491 40.1819C35.9862 40.1819 35.9231 40.1788 35.8601 40.1728C35.3127 40.1199 34.8104 39.8377 34.4823 39.3982L28.0601 30.8047L27.836 30.934C26.8366 31.5109 25.7252 31.8057 24.5967 31.8057C24.0273 31.8057 23.4537 31.7306 22.8878 31.5791C21.2004 31.127 19.7932 30.0499 18.9251 28.5464C18.057 27.0428 17.8279 25.2855 18.28 23.5982ZM37.6167 36.8075L31.627 28.7451L29.543 29.9484L35.8444 38.3804C35.8993 38.454 35.9721 38.4753 36.0234 38.4802C36.0695 38.4846 36.1583 38.4812 36.2385 38.4083L37.5889 37.183C37.6951 37.0867 37.7068 36.9288 37.6167 36.8075ZM47.1792 9.68996L49.3823 13.5058C50.3175 12.8576 50.6168 11.5863 50.0378 10.5834C49.4588 9.58065 48.2082 9.20414 47.1792 9.68996ZM38.2776 4.84857L49.1242 23.6355C49.3624 24.048 49.7495 24.3437 50.2144 24.4682C50.6792 24.5926 51.1623 24.5303 51.5749 24.2921C51.9873 24.0541 52.2831 23.6669 52.4077 23.2021C52.5322 22.7372 52.4696 22.2541 52.2316 21.8416L41.3848 3.05465C41.053 2.47979 40.4486 2.15805 39.8282 2.15805C39.5241 2.15805 39.2161 2.2353 38.9343 2.39805C38.5218 2.63611 38.2261 3.02331 38.1016 3.48813C37.9771 3.95294 38.0395 4.4361 38.2776 4.84857ZM27.5774 18.516L31.9377 26.0684C37.0372 23.8715 42.1528 22.677 46.5853 22.6387L37.8714 7.54564C35.6221 11.3651 32.0298 15.1982 27.5774 18.516ZM20.3976 27.6961C21.0385 28.8063 22.0791 29.602 23.3277 29.9365C24.5762 30.2711 25.8753 30.1023 26.9855 29.4613L30.6963 27.319L25.8735 18.9656L22.1627 21.108C21.0525 21.7489 20.2569 22.7896 19.9223 24.0382C19.5877 25.2867 19.7566 26.586 20.3976 27.6961ZM4.66433 9.82855C4.66433 6.98111 6.98089 4.66444 9.82846 4.66444C12.676 4.66444 14.9926 6.98099 14.9926 9.82855C14.9926 12.676 12.676 14.9925 9.82846 14.9925C6.98089 14.9925 4.66433 12.676 4.66433 9.82855ZM6.36474 9.82855C6.36474 11.7385 7.91854 13.2921 9.82846 13.2921C11.7384 13.2921 13.2922 11.7385 13.2922 9.82855C13.2922 7.91863 11.7384 6.36484 9.82846 6.36484C7.91854 6.36484 6.36474 7.91863 6.36474 9.82855ZM0 10.7264V8.93074C0 8.13665 0.645911 7.49074 1.43988 7.49074C2.14312 7.49074 2.42053 6.95317 2.48866 6.78836C2.55692 6.62354 2.74105 6.04722 2.24368 5.54998C1.97174 5.27816 1.82186 4.91658 1.82186 4.53181C1.82186 4.14715 1.97162 3.78545 2.24368 3.51351L3.51328 2.2438C4.07466 1.6823 4.98826 1.6823 5.54976 2.2438C6.04713 2.74117 6.62344 2.55704 6.78814 2.48878C6.95296 2.42052 7.49053 2.14323 7.49053 1.44C7.49053 0.645912 8.13644 3.26576e-06 8.9304 3.26576e-06H10.726C11.52 3.26576e-06 12.1659 0.645912 12.1659 1.44C12.1659 2.14323 12.7035 2.42052 12.8683 2.48878C13.033 2.55704 13.6096 2.74092 14.1067 2.2438C14.6682 1.6823 15.5817 1.6823 16.1432 2.2438L17.4129 3.51351C17.6848 3.78545 17.8346 4.14703 17.8346 4.53168C17.8346 4.91634 17.6848 5.27804 17.4128 5.54998C16.9155 6.04722 17.0996 6.62354 17.1679 6.78836C17.2362 6.95305 17.5134 7.49074 18.2167 7.49074C19.0106 7.49074 19.6566 8.13665 19.6566 8.93074V10.7264C19.6566 11.5203 19.0106 12.1662 18.2167 12.1662C17.5134 12.1662 17.236 12.7038 17.1679 12.8686C17.0996 13.0333 16.9155 13.6097 17.4129 14.107C17.9744 14.6685 17.9744 15.5821 17.4129 16.1435L16.1432 17.4132C15.8713 17.6851 15.5096 17.835 15.125 17.835C14.7403 17.835 14.3786 17.6852 14.1067 17.4132C13.6094 16.916 13.0332 17.0999 12.8683 17.1683C12.7036 17.2366 12.1659 17.5139 12.1659 18.2172C12.1659 19.0112 11.52 19.6571 10.726 19.6571H8.93065C8.13668 19.6571 7.49077 19.0112 7.49077 18.2172C7.49077 17.5124 6.95356 17.2351 6.78899 17.167C6.62417 17.0987 6.04834 16.9148 5.55 17.4133C5.27818 17.6852 4.91648 17.8351 4.53182 17.8351C4.14717 17.8351 3.78534 17.6854 3.51352 17.4133L2.24393 16.1437C1.97198 15.8719 1.82211 15.5102 1.82211 15.1254C1.82211 14.7408 1.97186 14.3791 2.24393 14.1071C2.74117 13.6099 2.55704 13.0336 2.48879 12.8689C2.42053 12.704 2.14324 12.1665 1.44 12.1665C0.645911 12.1662 0 11.5203 0 10.7264ZM1.7004 10.4771C2.75599 10.5691 3.64579 11.2184 4.05972 12.218C4.47376 13.2176 4.30372 14.3059 3.62223 15.1174L4.5396 16.0348C5.35166 15.3525 6.44028 15.1821 7.43951 15.5959C8.43887 16.0099 9.08794 16.9001 9.17976 17.9568H10.4769C10.5689 16.9012 11.2182 16.0114 12.2178 15.5974C13.2172 15.1836 14.3056 15.3534 15.1172 16.0348L16.0346 15.1174C15.3531 14.3059 15.1832 13.2176 15.5971 12.218C16.0111 11.2185 16.9008 10.5691 17.9564 10.4771V9.17997C16.9008 9.08802 16.011 8.43871 15.5971 7.43912C15.1832 6.43953 15.3531 5.35128 16.0345 4.5397L15.1171 3.62234C14.3054 4.30371 13.2171 4.47363 12.2177 4.0597C11.2182 3.64566 10.5689 2.75598 10.4769 1.7004H9.17976C9.08781 2.75598 8.4385 3.64578 7.43903 4.0597C6.43943 4.47375 5.35105 4.30371 4.5396 3.62222L3.62223 4.53958C4.3036 5.35128 4.47364 6.43953 4.0596 7.439C3.64579 8.43871 2.75599 9.08802 1.7004 9.17997V10.4771ZM59.9332 33.0815C59.6331 35.599 58.4225 37.9941 57.7275 39.1976C57.0326 40.4011 55.5639 42.647 53.5337 44.1656C52.2175 45.1503 50.892 45.6456 49.6077 45.6456C48.7109 45.6456 47.834 45.4041 46.9941 44.9192L46.6887 44.7428C46.1857 44.4524 45.8258 43.9827 45.6749 43.42C45.5242 42.8574 45.6011 42.2707 45.8915 41.7677L47.1123 39.6533C47.7126 38.6132 49.0473 38.2557 50.0874 38.856L50.8035 39.2695C51.0064 39.3868 51.2467 39.3471 51.4014 39.1709C52.0691 38.4096 52.684 37.5448 53.2292 36.6005C53.7745 35.6561 54.216 34.691 54.5413 33.7324C54.6166 33.5103 54.5309 33.2824 54.3279 33.1652L53.6118 32.7519C53.1087 32.4614 52.7489 31.9917 52.598 31.4291C52.4473 30.8665 52.5242 30.2796 52.8146 29.7766L54.0353 27.6622C54.6356 26.6223 55.9703 26.2647 57.0104 26.865L57.3159 27.0413C59.3587 28.2207 60.2637 30.3092 59.9332 33.0815ZM56.4657 28.5139L56.1604 28.3375C55.9324 28.2058 55.6396 28.2843 55.508 28.5123L54.2872 30.6267C54.224 30.7364 54.2073 30.8649 54.2406 30.9888C54.2738 31.1127 54.3525 31.2158 54.4621 31.2791L55.1783 31.6924C56.0896 32.2187 56.4899 33.2821 56.1516 34.2787C55.7905 35.3427 55.3028 36.4098 54.7019 37.4505C54.1012 38.4911 53.4208 39.447 52.6799 40.292C51.9859 41.0834 50.8648 41.2683 49.9534 40.7421L49.2373 40.3288C49.1623 40.2856 49.0804 40.2649 48.9994 40.2649C48.8342 40.2649 48.6732 40.3506 48.5848 40.5036L47.364 42.618C47.3008 42.7277 47.2841 42.8562 47.3174 42.9801C47.3506 43.104 47.4293 43.2071 47.5389 43.2704L47.8443 43.4468C49.2922 44.2826 50.82 44.0724 52.5152 42.8041C54.3689 41.4174 55.748 39.2255 56.2551 38.3474C56.7621 37.4694 57.9708 35.1788 58.2448 32.8802C58.4954 30.7779 57.9135 29.3497 56.4657 28.5139Z" fill="white"/>
</svg>
